<svg width="182" height="27" viewBox="0 0 182 27" fill="none" xmlns="http://www.w3.org/2000/svg">
<path d="M13.4596 25L12.4796 19.68H7.08957L6.14457 25H0.68457L6.56457 0.744995H13.1446L19.0246 25H13.4596ZM7.82457 15.725H11.7796L9.78457 4.77L7.82457 15.725Z" fill="#FF0404"/>
<path d="M27.2096 0.744995V20.66H34.8396L34.2796 25H21.7146V0.744995H27.2096Z" fill="#FF0404"/>
<path d="M43.512 0.744995V25H38.017V0.744995H43.512ZM55.202 0.744995L49.182 11.665L55.727 25H49.742L43.687 12.05L49.777 0.744995H55.202Z" fill="#FF0404"/>
<path d="M63.8134 0.744995V25H58.3184V0.744995H63.8134ZM75.5034 0.744995L69.4834 11.665L76.0284 25H70.0434L63.9884 12.05L70.0784 0.744995H75.5034Z" fill="#FF0404"/>
<path d="M80.8597 19.47C81.7231 19.47 82.4347 19.7733 82.9947 20.38C83.5547 20.9867 83.8347 21.71 83.8347 22.55C83.8347 23.39 83.5547 24.1133 82.9947 24.72C82.4347 25.3033 81.7231 25.595 80.8597 25.595C79.9731 25.595 79.2497 25.3033 78.6897 24.72C78.1531 24.1133 77.8847 23.39 77.8847 22.55C77.8847 21.71 78.1531 20.9867 78.6897 20.38C79.2497 19.7733 79.9731 19.47 80.8597 19.47Z" fill="#FF0404"/>
<path d="M98.6652 25L94.7102 15.655H94.5352H93.2052V25H87.7102V0.744995H94.1852C100.205 0.744995 103.215 3.195 103.215 8.095C103.215 9.51833 102.912 10.8017 102.305 11.945C101.722 13.0883 100.8 13.975 99.5402 14.605L104.51 25H98.6652ZM94.3252 11.84C95.4918 11.84 96.3318 11.5483 96.8452 10.965C97.3585 10.3583 97.6152 9.40166 97.6152 8.095C97.6152 6.90499 97.3352 6.03 96.7752 5.47C96.2385 4.91 95.3635 4.63 94.1502 4.63H93.2052V11.84H94.3252Z" fill="#FF0404"/>
<path d="M122.774 18C122.774 19.4467 122.47 20.7417 121.864 21.885C121.257 23.005 120.347 23.9033 119.134 24.58C117.92 25.2333 116.427 25.56 114.654 25.56C111.994 25.56 109.975 24.8717 108.599 23.495C107.222 22.1183 106.534 20.2867 106.534 18V0.744995H112.029V17.755C112.029 19.015 112.227 19.9483 112.624 20.555C113.044 21.1617 113.72 21.465 114.654 21.465C115.587 21.465 116.252 21.1617 116.649 20.555C117.069 19.9483 117.279 19.015 117.279 17.755V0.744995H122.774V18Z" fill="#FF0404"/>
<path d="M137.1 15V9.78L133.5 15H132.75V8H133.68V13.23L137.28 8H138.03V15H137.1ZM142.897 10H143.767V15H142.897V12.91H140.307V15H139.437V10H140.307V12.08H142.897V10ZM148.812 10V10.84H147.112V15H146.242V10.84H144.532V10H148.812ZM149.989 12.9C150.075 13.3467 150.279 13.6933 150.599 13.94C150.925 14.1867 151.325 14.31 151.799 14.31C152.459 14.31 152.939 14.0667 153.239 13.58L153.979 14C153.492 14.7533 152.759 15.13 151.779 15.13C150.985 15.13 150.339 14.8833 149.839 14.39C149.345 13.89 149.099 13.26 149.099 12.5C149.099 11.7467 149.342 11.12 149.829 10.62C150.315 10.12 150.945 9.87 151.719 9.87C152.452 9.87 153.049 10.13 153.509 10.65C153.975 11.1633 154.209 11.7833 154.209 12.51C154.209 12.6367 154.199 12.7667 154.179 12.9H149.989ZM151.719 10.69C151.252 10.69 150.865 10.8233 150.559 11.09C150.252 11.35 150.062 11.7 149.989 12.14H153.329C153.255 11.6667 153.069 11.3067 152.769 11.06C152.469 10.8133 152.119 10.69 151.719 10.69ZM157.969 9.87C158.669 9.87 159.265 10.1267 159.759 10.64C160.252 11.1467 160.499 11.7667 160.499 12.5C160.499 13.2333 160.252 13.8567 159.759 14.37C159.265 14.8767 158.669 15.13 157.969 15.13C157.142 15.13 156.512 14.8 156.079 14.14V17H155.209V10H156.079V10.86C156.512 10.2 157.142 9.87 157.969 9.87ZM157.859 14.29C158.359 14.29 158.779 14.12 159.119 13.78C159.459 13.4333 159.629 13.0067 159.629 12.5C159.629 11.9933 159.459 11.57 159.119 11.23C158.779 10.8833 158.359 10.71 157.859 10.71C157.352 10.71 156.929 10.8833 156.589 11.23C156.249 11.57 156.079 11.9933 156.079 12.5C156.079 13.0067 156.249 13.4333 156.589 13.78C156.929 14.12 157.352 14.29 157.859 14.29ZM164.997 10H165.867V15H164.997V12.91H162.407V15H161.537V10H162.407V12.08H164.997V10ZM167.801 12.9C167.888 13.3467 168.091 13.6933 168.411 13.94C168.738 14.1867 169.138 14.31 169.611 14.31C170.271 14.31 170.751 14.0667 171.051 13.58L171.791 14C171.305 14.7533 170.571 15.13 169.591 15.13C168.798 15.13 168.151 14.8833 167.651 14.39C167.158 13.89 166.911 13.26 166.911 12.5C166.911 11.7467 167.155 11.12 167.641 10.62C168.128 10.12 168.758 9.87 169.531 9.87C170.265 9.87 170.861 10.13 171.321 10.65C171.788 11.1633 172.021 11.7833 172.021 12.51C172.021 12.6367 172.011 12.7667 171.991 12.9H167.801ZM169.531 10.69C169.065 10.69 168.678 10.8233 168.371 11.09C168.065 11.35 167.875 11.7 167.801 12.14H171.141C171.068 11.6667 170.881 11.3067 170.581 11.06C170.281 10.8133 169.931 10.69 169.531 10.69ZM176.546 10V10.84H174.846V15H173.976V10.84H172.266V10H176.546ZM177.086 12.35V11.51H180.736V12.35H177.086ZM136.8 20H137.67V25H136.8V24.14C136.367 24.8 135.737 25.13 134.91 25.13C134.21 25.13 133.613 24.8767 133.12 24.37C132.627 23.8567 132.38 23.2333 132.38 22.5C132.38 21.7667 132.627 21.1467 133.12 20.64C133.613 20.1267 134.21 19.87 134.91 19.87C135.737 19.87 136.367 20.2 136.8 20.86V20ZM135.02 24.29C135.527 24.29 135.95 24.12 136.29 23.78C136.63 23.4333 136.8 23.0067 136.8 22.5C136.8 21.9933 136.63 21.57 136.29 21.23C135.95 20.8833 135.527 20.71 135.02 20.71C134.52 20.71 134.1 20.8833 133.76 21.23C133.42 21.57 133.25 21.9933 133.25 22.5C133.25 23.0067 133.42 23.4333 133.76 23.78C134.1 24.12 134.52 24.29 135.02 24.29ZM142.268 20V20.84H139.858V25H138.988V20H142.268ZM143.446 22.9C143.532 23.3467 143.736 23.6933 144.056 23.94C144.382 24.1867 144.782 24.31 145.256 24.31C145.916 24.31 146.396 24.0667 146.696 23.58L147.436 24C146.949 24.7533 146.216 25.13 145.236 25.13C144.442 25.13 143.796 24.8833 143.296 24.39C142.802 23.89 142.556 23.26 142.556 22.5C142.556 21.7467 142.799 21.12 143.286 20.62C143.772 20.12 144.402 19.87 145.176 19.87C145.909 19.87 146.506 20.13 146.966 20.65C147.432 21.1633 147.666 21.7833 147.666 22.51C147.666 22.6367 147.656 22.7667 147.636 22.9H143.446ZM145.176 20.69C144.709 20.69 144.322 20.8233 144.016 21.09C143.709 21.35 143.519 21.7 143.446 22.14H146.786C146.712 21.6667 146.526 21.3067 146.226 21.06C145.926 20.8133 145.576 20.69 145.176 20.69ZM152.126 20H152.996V25H152.126V22.91H149.536V25H148.666V20H149.536V22.08H152.126V20ZM158.04 20V20.84H156.34V25H155.47V20.84H153.76V20H158.04ZM160.957 25.13C160.204 25.13 159.577 24.88 159.077 24.38C158.577 23.8733 158.327 23.2467 158.327 22.5C158.327 21.7533 158.577 21.13 159.077 20.63C159.577 20.1233 160.204 19.87 160.957 19.87C161.451 19.87 161.894 19.99 162.287 20.23C162.681 20.4633 162.974 20.78 163.167 21.18L162.437 21.6C162.311 21.3333 162.114 21.12 161.847 20.96C161.587 20.8 161.291 20.72 160.957 20.72C160.457 20.72 160.037 20.89 159.697 21.23C159.364 21.57 159.197 21.9933 159.197 22.5C159.197 23 159.364 23.42 159.697 23.76C160.037 24.1 160.457 24.27 160.957 24.27C161.291 24.27 161.591 24.1933 161.857 24.04C162.124 23.88 162.327 23.6667 162.467 23.4L163.207 23.83C162.994 24.2233 162.687 24.54 162.287 24.78C161.887 25.0133 161.444 25.13 160.957 25.13ZM167.708 20V20.84H166.008V25H165.138V20.84H163.428V20H167.708ZM171.801 22.43C172.314 22.6433 172.571 23.03 172.571 23.59C172.571 24.0033 172.431 24.3433 172.151 24.61C171.877 24.87 171.484 25 170.971 25H168.471V20H170.771C171.271 20 171.657 20.1267 171.931 20.38C172.204 20.6267 172.341 20.9533 172.341 21.36C172.341 21.84 172.161 22.1967 171.801 22.43ZM170.731 20.78H169.321V22.09H170.731C171.237 22.09 171.491 21.8667 171.491 21.42C171.491 20.9933 171.237 20.78 170.731 20.78ZM170.921 24.21C171.174 24.21 171.367 24.15 171.501 24.03C171.641 23.91 171.711 23.74 171.711 23.52C171.711 23.3133 171.641 23.1533 171.501 23.04C171.367 22.92 171.174 22.86 170.921 22.86H169.321V24.21H170.921ZM177.73 24.37C177.216 24.8767 176.593 25.13 175.86 25.13C175.126 25.13 174.503 24.8767 173.99 24.37C173.483 23.8633 173.23 23.24 173.23 22.5C173.23 21.76 173.483 21.1367 173.99 20.63C174.503 20.1233 175.126 19.87 175.86 19.87C176.593 19.87 177.216 20.1233 177.73 20.63C178.243 21.1367 178.5 21.76 178.5 22.5C178.5 23.24 178.243 23.8633 177.73 24.37ZM175.86 24.28C176.36 24.28 176.78 24.11 177.12 23.77C177.46 23.43 177.63 23.0067 177.63 22.5C177.63 21.9933 177.46 21.57 177.12 21.23C176.78 20.89 176.36 20.72 175.86 20.72C175.366 20.72 174.95 20.89 174.61 21.23C174.27 21.57 174.1 21.9933 174.1 22.5C174.1 23.0067 174.27 23.43 174.61 23.77C174.95 24.11 175.366 24.28 175.86 24.28Z" fill="#333333"/>
<mask id="mask0_59_308" style="mask-type:alpha" maskUnits="userSpaceOnUse" x="0" y="0" width="123" height="26">
<path d="M13.4596 25L12.4796 19.68H7.08957L6.14457 25H0.68457L6.56457 0.744995H13.1446L19.0246 25H13.4596ZM7.82457 15.725H11.7796L9.78457 4.77L7.82457 15.725Z" fill="#FF0404"/>
<path d="M27.2096 0.744995V20.66H34.8396L34.2796 25H21.7146V0.744995H27.2096Z" fill="#FF0404"/>
<path d="M43.512 0.744995V25H38.017V0.744995H43.512ZM55.202 0.744995L49.182 11.665L55.727 25H49.742L43.687 12.05L49.777 0.744995H55.202Z" fill="#FF0404"/>
<path d="M63.8134 0.744995V25H58.3184V0.744995H63.8134ZM75.5034 0.744995L69.4834 11.665L76.0284 25H70.0434L63.9884 12.05L70.0784 0.744995H75.5034Z" fill="#FF0404"/>
<path d="M80.8597 19.47C81.7231 19.47 82.4347 19.7733 82.9947 20.38C83.5547 20.9867 83.8347 21.71 83.8347 22.55C83.8347 23.39 83.5547 24.1133 82.9947 24.72C82.4347 25.3033 81.7231 25.595 80.8597 25.595C79.9731 25.595 79.2497 25.3033 78.6897 24.72C78.1531 24.1133 77.8847 23.39 77.8847 22.55C77.8847 21.71 78.1531 20.9867 78.6897 20.38C79.2497 19.7733 79.9731 19.47 80.8597 19.47Z" fill="#FF0404"/>
<path d="M98.6652 25L94.7102 15.655H94.5352H93.2052V25H87.7102V0.744995H94.1852C100.205 0.744995 103.215 3.195 103.215 8.095C103.215 9.51833 102.912 10.8017 102.305 11.945C101.722 13.0883 100.8 13.975 99.5402 14.605L104.51 25H98.6652ZM94.3252 11.84C95.4918 11.84 96.3318 11.5483 96.8452 10.965C97.3585 10.3583 97.6152 9.40166 97.6152 8.095C97.6152 6.90499 97.3352 6.03 96.7752 5.47C96.2385 4.91 95.3635 4.63 94.1502 4.63H93.2052V11.84H94.3252Z" fill="#FF0404"/>
<path d="M122.774 18C122.774 19.4467 122.47 20.7417 121.864 21.885C121.257 23.005 120.347 23.9033 119.134 24.58C117.92 25.2333 116.427 25.56 114.654 25.56C111.994 25.56 109.975 24.8717 108.599 23.495C107.222 22.1183 106.534 20.2867 106.534 18V0.744995H112.029V17.755C112.029 19.015 112.227 19.9483 112.624 20.555C113.044 21.1617 113.72 21.465 114.654 21.465C115.587 21.465 116.252 21.1617 116.649 20.555C117.069 19.9483 117.279 19.015 117.279 17.755V0.744995H122.774V18Z" fill="#FF0404"/>
</mask>
<g mask="url(#mask0_59_308)">
<rect x="-1.15527" y="21.6216" width="21.4532" height="6.39274" fill="#333333"/>
</g>
</svg>
