<svg width="182" height="27" viewBox="0 0 182 27" fill="none" xmlns="http://www.w3.org/2000/svg">
<path d="M12.8219 24.3986L11.8419 19.0786H6.45188L5.50688 24.3986H0.046875L5.92688 0.143555H12.5069L18.3869 24.3986H12.8219ZM7.18688 15.1236H11.1419L9.14688 4.16856L7.18688 15.1236Z" fill="#FF0404"/>
<path d="M26.572 0.143555V20.0586H34.202L33.642 24.3986H21.077V0.143555H26.572Z" fill="#FF0404"/>
<path d="M42.8743 0.143555V24.3986H37.3793V0.143555H42.8743ZM54.5643 0.143555L48.5443 11.0636L55.0893 24.3986H49.1043L43.0493 11.4486L49.1393 0.143555H54.5643Z" fill="#FF0404"/>
<path d="M63.1757 0.143555V24.3986H57.6807V0.143555H63.1757ZM74.8657 0.143555L68.8457 11.0636L75.3907 24.3986H69.4057L63.3507 11.4486L69.4407 0.143555H74.8657Z" fill="#FF0404"/>
<path d="M80.222 18.8686C81.0854 18.8686 81.797 19.1719 82.357 19.7786C82.917 20.3852 83.197 21.1086 83.197 21.9486C83.197 22.7886 82.917 23.5119 82.357 24.1186C81.797 24.7019 81.0854 24.9936 80.222 24.9936C79.3354 24.9936 78.612 24.7019 78.052 24.1186C77.5154 23.5119 77.247 22.7886 77.247 21.9486C77.247 21.1086 77.5154 20.3852 78.052 19.7786C78.612 19.1719 79.3354 18.8686 80.222 18.8686Z" fill="#FF0404"/>
<path d="M98.0275 24.3986L94.0725 15.0536H93.8975H92.5675V24.3986H87.0725V0.143555H93.5475C99.5675 0.143555 102.577 2.59355 102.577 7.49356C102.577 8.91689 102.274 10.2002 101.667 11.3436C101.084 12.4869 100.162 13.3736 98.9025 14.0036L103.872 24.3986H98.0275ZM93.6875 11.2386C94.8541 11.2386 95.6941 10.9469 96.2075 10.3636C96.7208 9.75689 96.9775 8.80022 96.9775 7.49356C96.9775 6.30355 96.6975 5.42856 96.1375 4.86856C95.6008 4.30856 94.7258 4.02855 93.5125 4.02855H92.5675V11.2386H93.6875Z" fill="#FF0404"/>
<path d="M122.136 17.3986C122.136 18.8452 121.833 20.1402 121.226 21.2836C120.619 22.4036 119.709 23.3019 118.496 23.9786C117.283 24.6319 115.789 24.9586 114.016 24.9586C111.356 24.9586 109.338 24.2702 107.961 22.8936C106.584 21.5169 105.896 19.6852 105.896 17.3986V0.143555H111.391V17.1536C111.391 18.4136 111.589 19.3469 111.986 19.9536C112.406 20.5602 113.083 20.8636 114.016 20.8636C114.949 20.8636 115.614 20.5602 116.011 19.9536C116.431 19.3469 116.641 18.4136 116.641 17.1536V0.143555H122.136V17.3986Z" fill="#FF0404"/>
<path d="M136.463 14.3984V9.17844L132.863 14.3984H132.113V7.39844H133.043V12.6284L136.643 7.39844H137.393V14.3984H136.463ZM142.261 9.39844H143.131V14.3984H142.261V12.3084H139.671V14.3984H138.801V9.39844H139.671V11.4784H142.261V9.39844ZM148.175 9.39844V10.2384H146.475V14.3984H145.605V10.2384H143.895V9.39844H148.175ZM149.352 12.2984C149.439 12.7451 149.642 13.0918 149.962 13.3384C150.289 13.5851 150.689 13.7084 151.162 13.7084C151.822 13.7084 152.302 13.4651 152.602 12.9784L153.342 13.3984C152.855 14.1518 152.122 14.5284 151.142 14.5284C150.349 14.5284 149.702 14.2818 149.202 13.7884C148.709 13.2884 148.462 12.6584 148.462 11.8984C148.462 11.1451 148.705 10.5184 149.192 10.0184C149.679 9.51844 150.309 9.26844 151.082 9.26844C151.815 9.26844 152.412 9.52844 152.872 10.0484C153.339 10.5618 153.572 11.1818 153.572 11.9084C153.572 12.0351 153.562 12.1651 153.542 12.2984H149.352ZM151.082 10.0884C150.615 10.0884 150.229 10.2218 149.922 10.4884C149.615 10.7484 149.425 11.0984 149.352 11.5384H152.692C152.619 11.0651 152.432 10.7051 152.132 10.4584C151.832 10.2118 151.482 10.0884 151.082 10.0884ZM157.332 9.26844C158.032 9.26844 158.629 9.5251 159.122 10.0384C159.615 10.5451 159.862 11.1651 159.862 11.8984C159.862 12.6318 159.615 13.2551 159.122 13.7684C158.629 14.2751 158.032 14.5284 157.332 14.5284C156.505 14.5284 155.875 14.1984 155.442 13.5384V16.3984H154.572V9.39844H155.442V10.2584C155.875 9.59844 156.505 9.26844 157.332 9.26844ZM157.222 13.6884C157.722 13.6884 158.142 13.5184 158.482 13.1784C158.822 12.8318 158.992 12.4051 158.992 11.8984C158.992 11.3918 158.822 10.9684 158.482 10.6284C158.142 10.2818 157.722 10.1084 157.222 10.1084C156.715 10.1084 156.292 10.2818 155.952 10.6284C155.612 10.9684 155.442 11.3918 155.442 11.8984C155.442 12.4051 155.612 12.8318 155.952 13.1784C156.292 13.5184 156.715 13.6884 157.222 13.6884ZM164.36 9.39844H165.23V14.3984H164.36V12.3084H161.77V14.3984H160.9V9.39844H161.77V11.4784H164.36V9.39844ZM167.165 12.2984C167.251 12.7451 167.455 13.0918 167.775 13.3384C168.101 13.5851 168.501 13.7084 168.975 13.7084C169.635 13.7084 170.115 13.4651 170.415 12.9784L171.155 13.3984C170.668 14.1518 169.935 14.5284 168.955 14.5284C168.161 14.5284 167.515 14.2818 167.015 13.7884C166.521 13.2884 166.275 12.6584 166.275 11.8984C166.275 11.1451 166.518 10.5184 167.005 10.0184C167.491 9.51844 168.121 9.26844 168.895 9.26844C169.628 9.26844 170.225 9.52844 170.685 10.0484C171.151 10.5618 171.385 11.1818 171.385 11.9084C171.385 12.0351 171.375 12.1651 171.355 12.2984H167.165ZM168.895 10.0884C168.428 10.0884 168.041 10.2218 167.735 10.4884C167.428 10.7484 167.238 11.0984 167.165 11.5384H170.505C170.431 11.0651 170.245 10.7051 169.945 10.4584C169.645 10.2118 169.295 10.0884 168.895 10.0884ZM175.909 9.39844V10.2384H174.209V14.3984H173.339V10.2384H171.629V9.39844H175.909ZM176.449 11.7484V10.9084H180.099V11.7484H176.449ZM136.163 19.3984H137.033V24.3984H136.163V23.5384C135.73 24.1984 135.1 24.5284 134.273 24.5284C133.573 24.5284 132.977 24.2751 132.483 23.7684C131.99 23.2551 131.743 22.6318 131.743 21.8984C131.743 21.1651 131.99 20.5451 132.483 20.0384C132.977 19.5251 133.573 19.2684 134.273 19.2684C135.1 19.2684 135.73 19.5984 136.163 20.2584V19.3984ZM134.383 23.6884C134.89 23.6884 135.313 23.5184 135.653 23.1784C135.993 22.8318 136.163 22.4051 136.163 21.8984C136.163 21.3918 135.993 20.9684 135.653 20.6284C135.313 20.2818 134.89 20.1084 134.383 20.1084C133.883 20.1084 133.463 20.2818 133.123 20.6284C132.783 20.9684 132.613 21.3918 132.613 21.8984C132.613 22.4051 132.783 22.8318 133.123 23.1784C133.463 23.5184 133.883 23.6884 134.383 23.6884ZM141.631 19.3984V20.2384H139.221V24.3984H138.351V19.3984H141.631ZM142.809 22.2984C142.896 22.7451 143.099 23.0918 143.419 23.3384C143.746 23.5851 144.146 23.7084 144.619 23.7084C145.279 23.7084 145.759 23.4651 146.059 22.9784L146.799 23.3984C146.312 24.1518 145.579 24.5284 144.599 24.5284C143.806 24.5284 143.159 24.2818 142.659 23.7884C142.166 23.2884 141.919 22.6584 141.919 21.8984C141.919 21.1451 142.162 20.5184 142.649 20.0184C143.136 19.5184 143.766 19.2684 144.539 19.2684C145.272 19.2684 145.869 19.5284 146.329 20.0484C146.796 20.5618 147.029 21.1818 147.029 21.9084C147.029 22.0351 147.019 22.1651 146.999 22.2984H142.809ZM144.539 20.0884C144.072 20.0884 143.686 20.2218 143.379 20.4884C143.072 20.7484 142.882 21.0984 142.809 21.5384H146.149C146.076 21.0651 145.889 20.7051 145.589 20.4584C145.289 20.2118 144.939 20.0884 144.539 20.0884ZM151.489 19.3984H152.359V24.3984H151.489V22.3084H148.899V24.3984H148.029V19.3984H148.899V21.4784H151.489V19.3984ZM157.403 19.3984V20.2384H155.703V24.3984H154.833V20.2384H153.123V19.3984H157.403ZM160.321 24.5284C159.567 24.5284 158.941 24.2784 158.441 23.7784C157.941 23.2718 157.691 22.6451 157.691 21.8984C157.691 21.1518 157.941 20.5284 158.441 20.0284C158.941 19.5218 159.567 19.2684 160.321 19.2684C160.814 19.2684 161.257 19.3884 161.651 19.6284C162.044 19.8618 162.337 20.1784 162.531 20.5784L161.801 20.9984C161.674 20.7318 161.477 20.5184 161.211 20.3584C160.951 20.1984 160.654 20.1184 160.321 20.1184C159.821 20.1184 159.401 20.2884 159.061 20.6284C158.727 20.9684 158.561 21.3918 158.561 21.8984C158.561 22.3984 158.727 22.8184 159.061 23.1584C159.401 23.4984 159.821 23.6684 160.321 23.6684C160.654 23.6684 160.954 23.5918 161.221 23.4384C161.487 23.2784 161.691 23.0651 161.831 22.7984L162.571 23.2284C162.357 23.6218 162.051 23.9384 161.651 24.1784C161.251 24.4118 160.807 24.5284 160.321 24.5284ZM167.071 19.3984V20.2384H165.371V24.3984H164.501V20.2384H162.791V19.3984H167.071ZM171.164 21.8284C171.677 22.0418 171.934 22.4284 171.934 22.9884C171.934 23.4018 171.794 23.7418 171.514 24.0084C171.24 24.2684 170.847 24.3984 170.334 24.3984H167.834V19.3984H170.134C170.634 19.3984 171.02 19.5251 171.294 19.7784C171.567 20.0251 171.704 20.3518 171.704 20.7584C171.704 21.2384 171.524 21.5951 171.164 21.8284ZM170.094 20.1784H168.684V21.4884H170.094C170.6 21.4884 170.854 21.2651 170.854 20.8184C170.854 20.3918 170.6 20.1784 170.094 20.1784ZM170.284 23.6084C170.537 23.6084 170.73 23.5484 170.864 23.4284C171.004 23.3084 171.074 23.1384 171.074 22.9184C171.074 22.7118 171.004 22.5518 170.864 22.4384C170.73 22.3184 170.537 22.2584 170.284 22.2584H168.684V23.6084H170.284ZM177.093 23.7684C176.58 24.2751 175.956 24.5284 175.223 24.5284C174.49 24.5284 173.866 24.2751 173.353 23.7684C172.846 23.2618 172.593 22.6384 172.593 21.8984C172.593 21.1584 172.846 20.5351 173.353 20.0284C173.866 19.5218 174.49 19.2684 175.223 19.2684C175.956 19.2684 176.58 19.5218 177.093 20.0284C177.606 20.5351 177.863 21.1584 177.863 21.8984C177.863 22.6384 177.606 23.2618 177.093 23.7684ZM175.223 23.6784C175.723 23.6784 176.143 23.5084 176.483 23.1684C176.823 22.8284 176.993 22.4051 176.993 21.8984C176.993 21.3918 176.823 20.9684 176.483 20.6284C176.143 20.2884 175.723 20.1184 175.223 20.1184C174.73 20.1184 174.313 20.2884 173.973 20.6284C173.633 20.9684 173.463 21.3918 173.463 21.8984C173.463 22.4051 173.633 22.8284 173.973 23.1684C174.313 23.5084 174.73 23.6784 175.223 23.6784Z" fill="white"/>
<mask id="mask0_68_2156" style="mask-type:alpha" maskUnits="userSpaceOnUse" x="0" y="0" width="19" height="25">
<path d="M12.8219 24.3986L11.8419 19.0786H6.45188L5.50688 24.3986H0.046875L5.92688 0.143555H12.5069L18.3869 24.3986H12.8219ZM7.18688 15.1236H11.1419L9.14688 4.16856L7.18688 15.1236Z" fill="white"/>
</mask>
<g mask="url(#mask0_68_2156)">
<path d="M-1.79297 21.0205H19.6603V27.4132H-1.79297V21.0205Z" fill="white"/>
</g>
</svg>
